<svg width="28" height="28" viewBox="0 0 28 28" fill="none" xmlns="http://www.w3.org/2000/svg">
<path fill-rule="evenodd" clip-rule="evenodd" d="M23.2388 17.8268C23.7413 16.6136 24 15.3132 24 14C24 11.3478 22.9464 8.8043 21.0711 6.92893C19.1957 5.05357 16.6522 4 14 4C11.3478 4 8.8043 5.05357 6.92893 6.92893C5.05357 8.8043 4 11.3478 4 14C4 15.3132 4.25866 16.6136 4.7612 17.8268C5.26375 19.0401 6.00035 20.1425 6.92893 21.0711C7.85752 21.9997 8.95991 22.7362 10.1732 23.2388C11.3864 23.7413 12.6868 24 14 24C15.3132 24 16.6136 23.7413 17.8268 23.2388C19.0401 22.7362 20.1425 21.9997 21.0711 21.0711C21.9997 20.1425 22.7362 19.0401 23.2388 17.8268ZM18.0115 11.9838C18.279 11.6093 18.1922 11.0888 17.8177 10.8213C17.4432 10.5538 16.9228 10.6405 16.6553 11.015L13.0604 16.0479L11.256 14.2435C10.9305 13.9181 10.4029 13.9181 10.0775 14.2435C9.75201 14.5689 9.75201 15.0966 10.0775 15.422L12.5775 17.922C12.7507 18.0952 12.9913 18.1834 13.2354 18.1632C13.4796 18.143 13.7024 18.0164 13.8448 17.8171L18.0115 11.9838Z" fill="#6E79FF"/>
</svg>
