<svg width="103" height="486" viewBox="0 0 103 486" fill="none" xmlns="http://www.w3.org/2000/svg">
<mask id="mask0_35_2974" style="mask-type:alpha" maskUnits="userSpaceOnUse" x="0" y="0" width="268" height="486">
<path d="M0 0H256C262.627 0 268 5.37258 268 12V474C268 480.627 262.627 486 256 486H0V0Z" fill="#034844"/>
</mask>
<g mask="url(#mask0_35_2974)">
<g opacity="0.6">
<path d="M103 84.9923C75.6827 84.9923 49.4842 74.1406 30.168 54.8243C10.8517 35.508 -2.35453e-05 9.30957 -1.80091e-05 -18.0077C-1.24729e-05 -45.3251 10.8518 -71.5235 30.168 -90.8398C49.4843 -110.156 75.6828 -121.008 103 -121.008L103 -90.1078C83.8779 -90.1078 65.539 -82.5115 52.0176 -68.9902C38.4962 -55.4688 30.9 -37.1299 30.9 -18.0077C30.9 1.11439 38.4962 19.4533 52.0176 32.9747C65.539 46.4961 83.8779 54.0923 103 54.0923L103 84.9923Z" fill="#3EA19D"/>
<path d="M-5.06554e-05 58.8905C27.3173 58.8905 53.5157 69.7422 72.832 89.0585C92.1483 108.375 103 134.573 103 161.891C103 189.208 92.1482 215.406 72.832 234.723C53.5157 254.039 27.3172 264.891 -6.86646e-05 264.891L-6.59632e-05 233.991C19.1221 233.991 37.461 226.394 50.9824 212.873C64.5037 199.352 72.1 181.013 72.1 161.891C72.1 142.768 64.5038 124.43 50.9824 110.908C37.461 97.3867 19.1221 89.7905 -5.33568e-05 89.7905L-5.06554e-05 58.8905Z" fill="#3EA19D"/>
<path d="M103 444.789C75.6827 444.789 49.4842 433.937 30.168 414.621C10.8517 395.304 -2.35453e-05 369.106 -1.80091e-05 341.789C-1.24729e-05 314.471 10.8518 288.273 30.168 268.957C49.4843 249.64 75.6828 238.789 103 238.789L103 269.689C83.8779 269.689 65.539 277.285 52.0176 290.806C38.4962 304.328 30.9 322.667 30.9 341.789C30.9 360.911 38.4962 379.25 52.0176 392.771C65.539 406.292 83.8779 413.889 103 413.889L103 444.789Z" fill="#3EA19D"/>
<path d="M-5.06554e-05 418.686C27.3173 418.686 53.5157 429.538 72.832 448.854C92.1483 468.171 103 494.369 103 521.686C103 549.004 92.1482 575.202 72.832 594.518C53.5157 613.835 27.3172 624.687 -6.86646e-05 624.687L-6.59632e-05 593.786C19.1221 593.786 37.461 586.19 50.9824 572.669C64.5037 559.148 72.1 540.809 72.1 521.686C72.1 502.564 64.5038 484.225 50.9824 470.704C37.461 457.183 19.1221 449.586 -5.33568e-05 449.586L-5.06554e-05 418.686Z" fill="#3EA19D"/>
</g>
</g>
</svg>
