<svg width="38" height="38" viewBox="0 0 38 38" fill="none" xmlns="http://www.w3.org/2000/svg">
<path d="M33.2501 31.468C33.2501 32.4512 32.4521 33.2492 31.4688 33.2492H10L13 16.5L21.1851 8.4178C21.8786 7.72271 23.0059 7.72271 23.7026 8.4178L29.5799 14.2967C30.2766 14.9934 30.2766 16.1207 29.5799 16.8142L25.0215 21.3742H31.4688C32.4521 21.3742 33.2501 22.1722 33.2501 23.1555V31.468Z" fill="#3EA19D"/>
<path d="M10.6875 33.2511C9.11278 33.2511 7.602 32.625 6.4885 31.5115C5.375 30.398 4.75 28.8872 4.75 27.3125V6.53125C4.75 5.548 5.548 4.75 6.53125 4.75H14.8438C15.827 4.75 16.625 5.548 16.625 6.53125V12.9786M10.6875 33.2511C12.2622 33.2511 13.773 32.625 14.8865 31.5115C16 30.398 16.625 28.8872 16.625 27.3125V12.9786M10.6875 27.3125H10.7002V27.3252H10.6875V27.3125Z" fill="#F9F3EE"/>
<circle cx="11" cy="28" r="2" fill="#034844"/>
</svg>
