<svg width="1200" height="186" viewBox="0 0 1200 186" fill="none" xmlns="http://www.w3.org/2000/svg">
<mask id="mask0_35_2922" style="mask-type:alpha" maskUnits="userSpaceOnUse" x="0" y="-300" width="1200" height="486">
<rect y="-300" width="1200" height="486" rx="12" fill="#6E79FF"/>
</mask>
<g mask="url(#mask0_35_2922)">
<rect width="9143.33" height="186" transform="translate(-3676.1)" fill="#6E79FF"/>
<path d="M-102.597 186C-102.597 136.67 -83.0002 89.3599 -48.1185 54.4781C-13.2367 19.5964 34.0731 -1.16589e-05 83.4034 -8.13032e-06C132.734 -4.60175e-06 180.043 19.5964 214.925 54.4781C249.807 89.3599 269.403 136.67 269.403 186L213.603 186C213.603 151.469 199.886 118.352 175.469 93.9347C151.051 69.5174 117.935 55.8 83.4034 55.8C48.8722 55.8 15.7553 69.5174 -8.66193 93.9347C-33.0792 118.352 -46.7966 151.469 -46.7966 186L-102.597 186Z" fill="#818AFF"/>
<path d="M594.268 9.45583e-05C594.268 49.3303 574.671 96.6402 539.789 131.522C504.908 166.404 457.598 186 408.268 186C358.937 186 311.627 166.404 276.746 131.522C241.864 96.6401 222.268 49.3303 222.268 4.57764e-05L278.068 5.30937e-05C278.068 34.5312 291.785 67.6481 316.202 92.0653C340.619 116.483 373.736 130.2 408.268 130.2C442.799 130.2 475.916 116.483 500.333 92.0654C524.75 67.6481 538.468 34.5313 538.468 8.7241e-05L594.268 9.45583e-05Z" fill="#818AFF"/>
<path d="M547.132 186C547.132 136.67 566.728 89.3599 601.61 54.4781C636.492 19.5964 683.802 -1.16589e-05 733.132 -8.13032e-06C782.462 -4.60175e-06 829.772 19.5964 864.654 54.4781C899.535 89.3599 919.132 136.67 919.132 186L863.332 186C863.332 151.469 849.614 118.352 825.197 93.9347C800.78 69.5174 767.663 55.8 733.132 55.8C698.601 55.8 665.484 69.5174 641.067 93.9347C616.649 118.352 602.932 151.469 602.932 186L547.132 186Z" fill="#818AFF"/>
<path d="M1244 9.45583e-05C1244 49.3303 1224.4 96.6402 1189.52 131.522C1154.64 166.404 1107.33 186 1058 186C1008.67 186 961.356 166.404 926.474 131.522C891.592 96.6401 871.996 49.3303 871.996 4.57764e-05L927.796 5.30937e-05C927.796 34.5312 941.514 67.6481 965.931 92.0653C990.348 116.483 1023.46 130.2 1058 130.2C1092.53 130.2 1125.64 116.483 1150.06 92.0654C1174.48 67.6481 1188.2 34.5313 1188.2 8.7241e-05L1244 9.45583e-05Z" fill="#818AFF"/>
<path d="M1196.86 186C1196.86 136.67 1216.46 89.3599 1251.34 54.4781C1286.22 19.5964 1333.53 -1.16589e-05 1382.86 -8.13032e-06C1432.19 -4.60175e-06 1479.5 19.5964 1514.38 54.4781C1549.26 89.3599 1568.86 136.67 1568.86 186L1513.06 186C1513.06 151.469 1499.34 118.352 1474.93 93.9347C1450.51 69.5174 1417.39 55.8 1382.86 55.8C1348.33 55.8 1315.21 69.5174 1290.8 93.9347C1266.38 118.352 1252.66 151.469 1252.66 186L1196.86 186Z" fill="#818AFF"/>
</g>
</svg>
