<svg width="205" height="59" viewBox="0 0 205 59" fill="none" xmlns="http://www.w3.org/2000/svg">
<path d="M203.096 52.1958C203.096 55.34 200.496 57.8869 197.281 57.8869H6.9581C3.74381 57.8869 1.13477 55.34 1.13477 52.1958V6.81174C1.13477 3.66904 3.74381 1.11328 6.9581 1.11328H197.279C200.496 1.11328 203.095 3.66904 203.095 6.81174L203.096 52.1958Z" fill="black"/>
<path d="M196.667 1.18185C200.169 1.18185 203.019 3.96038 203.019 7.37501V51.625C203.019 55.0396 200.169 57.8182 196.667 57.8182H7.5641C4.06192 57.8182 1.21215 55.0396 1.21215 51.625V7.37501C1.21215 3.96038 4.06192 1.18185 7.5641 1.18185H196.667ZM196.667 5.4802e-06H7.5641C3.40574 5.4802e-06 0 3.3206 0 7.37501V51.625C0 55.6794 3.40574 59 7.5641 59H196.667C200.825 59 204.231 55.6794 204.231 51.625V7.37501C204.231 3.3206 200.825 5.4802e-06 196.667 5.4802e-06Z" fill="#A6A6A6"/>
<path d="M45.5785 29.1812C45.5346 24.4273 49.5708 22.1145 49.7553 22.0068C47.4695 18.7574 43.9265 18.3134 42.6814 18.278C39.7057 17.9727 36.8192 20.0141 35.3034 20.0141C33.7573 20.0141 31.423 18.3075 28.9072 18.3577C25.6697 18.4064 22.6411 20.2339 20.98 23.0718C17.5519 28.8582 20.1086 37.3616 23.3929 42.0388C25.0359 44.3295 26.9556 46.8871 29.4684 46.7972C31.9268 46.6983 32.845 45.2691 35.8117 45.2691C38.7511 45.2691 39.6134 46.7972 42.1761 46.7396C44.8145 46.6983 46.4756 44.4386 48.061 42.1273C49.9596 39.5018 50.722 36.9161 50.7523 36.7834C50.6903 36.7627 45.6284 34.8792 45.5785 29.1812Z" fill="white"/>
<path d="M40.7374 15.2012C42.0596 13.589 42.9643 11.3957 42.7132 9.16992C40.7994 9.25252 38.4062 10.4605 37.028 12.0373C35.8087 13.4268 34.7194 15.7042 35.0008 17.8459C37.1505 18.0022 39.3577 16.7883 40.7374 15.2012Z" fill="white"/>
<path d="M81.1552 46.4682H77.7196L75.8377 40.7024H69.2962L67.5035 46.4682H64.1587L70.6396 26.8389H74.6425L81.1552 46.4682ZM75.2704 38.2834L73.5684 33.1578C73.3884 32.6341 73.051 31.401 72.5533 29.4599H72.4928C72.2946 30.2948 71.9754 31.5279 71.5367 33.1578L69.865 38.2834H75.2704Z" fill="white"/>
<path d="M97.8218 39.217C97.8218 41.6242 97.1546 43.527 95.8203 44.9238C94.6252 46.1672 93.1411 46.7882 91.3696 46.7882C89.4574 46.7882 88.0837 46.1185 87.2472 44.7792H87.1866V52.2354H83.9613V36.9735C83.9613 35.4602 83.9205 33.907 83.8418 32.314H86.6783L86.8584 34.5575H86.9189C87.9945 32.8671 89.6268 32.0234 91.8174 32.0234C93.5299 32.0234 94.9595 32.6828 96.1032 34.0029C97.2499 35.3245 97.8218 37.062 97.8218 39.217ZM94.5359 39.3321C94.5359 37.9544 94.2182 36.8187 93.5798 35.9248C92.8824 34.9926 91.946 34.5265 90.772 34.5265C89.9763 34.5265 89.2532 34.7861 88.6072 35.2979C87.9597 35.8142 87.5361 36.4883 87.3379 37.3231C87.2381 37.7125 87.1882 38.0311 87.1882 38.2819V40.6419C87.1882 41.6714 87.5119 42.5402 88.1594 43.2497C88.8069 43.9591 89.648 44.3131 90.6828 44.3131C91.8976 44.3131 92.8431 43.8559 93.5193 42.9443C94.1971 42.0313 94.5359 40.8277 94.5359 39.3321Z" fill="white"/>
<path d="M114.519 39.217C114.519 41.6242 113.852 43.527 112.516 44.9238C111.322 46.1672 109.838 46.7882 108.067 46.7882C106.155 46.7882 104.781 46.1185 103.946 44.7792H103.885V52.2354H100.66V36.9735C100.66 35.4602 100.619 33.907 100.541 32.314H103.377L103.557 34.5575H103.618C104.692 32.8671 106.324 32.0234 108.516 32.0234C110.227 32.0234 111.657 32.6828 112.803 34.0029C113.946 35.3245 114.519 37.062 114.519 39.217ZM111.233 39.3321C111.233 37.9544 110.914 36.8187 110.276 35.9248C109.578 34.9926 108.645 34.5265 107.469 34.5265C106.672 34.5265 105.95 34.7861 105.303 35.2979C104.655 35.8142 104.233 36.4883 104.035 37.3231C103.937 37.7125 103.885 38.0311 103.885 38.2819V40.6419C103.885 41.6714 104.209 42.5402 104.854 43.2497C105.501 43.9577 106.342 44.3131 107.38 44.3131C108.595 44.3131 109.54 43.8559 110.217 42.9443C110.894 42.0313 111.233 40.8277 111.233 39.3321Z" fill="white"/>
<path d="M133.187 40.9635C133.187 42.6332 132.593 43.9917 131.399 45.0404C130.087 46.1865 128.261 46.7588 125.915 46.7588C123.749 46.7588 122.012 46.3517 120.697 45.536L121.445 42.9149C122.861 43.7498 124.414 44.1687 126.107 44.1687C127.322 44.1687 128.267 43.9002 128.947 43.3663C129.623 42.8323 129.96 42.1155 129.96 41.2216C129.96 40.4251 129.682 39.754 129.124 39.2097C128.568 38.6654 127.641 38.1595 126.346 37.6919C122.821 36.4102 121.06 34.5325 121.06 32.0633C121.06 30.4497 121.678 29.1266 122.914 28.0971C124.145 27.066 125.788 26.5513 127.842 26.5513C129.674 26.5513 131.196 26.8625 132.411 27.4835L131.605 30.047C130.47 29.4452 129.187 29.1443 127.752 29.1443C126.617 29.1443 125.73 29.4172 125.095 29.96C124.558 30.4453 124.289 31.0367 124.289 31.7374C124.289 32.5132 124.596 33.1548 125.213 33.6593C125.75 34.1254 126.726 34.6298 128.142 35.1741C129.874 35.8541 131.146 36.6491 131.965 37.5607C132.78 38.4693 133.187 39.6065 133.187 40.9635Z" fill="white"/>
<path d="M143.851 34.6738H140.296V41.5459C140.296 43.2937 140.922 44.1669 142.178 44.1669C142.754 44.1669 143.232 44.1183 143.611 44.0209L143.7 46.4089C143.065 46.6405 142.228 46.757 141.192 46.757C139.918 46.757 138.922 46.378 138.204 45.6213C137.488 44.8631 137.128 43.5917 137.128 41.8055V34.6709H135.01V32.3109H137.128V29.7193L140.296 28.7871V32.3109H143.851V34.6738Z" fill="white"/>
<path d="M159.891 39.2745C159.891 41.4502 159.253 43.2364 157.979 44.6332C156.643 46.0713 154.87 46.7882 152.66 46.7882C150.53 46.7882 148.834 46.0994 147.569 44.7217C146.305 43.3441 145.672 41.605 145.672 39.5091C145.672 37.3157 146.323 35.5192 147.628 34.1224C148.931 32.7241 150.689 32.0249 152.899 32.0249C155.029 32.0249 156.743 32.7137 158.037 34.0929C159.274 35.4307 159.891 37.1579 159.891 39.2745ZM156.545 39.3763C156.545 38.0709 156.259 36.9514 155.68 36.0177C155.003 34.8879 154.037 34.3244 152.784 34.3244C151.488 34.3244 150.503 34.8894 149.827 36.0177C149.247 36.9529 148.961 38.0901 148.961 39.4353C148.961 40.7407 149.247 41.8602 149.827 42.7924C150.524 43.9223 151.498 44.4857 152.755 44.4857C153.987 44.4857 154.954 43.9105 155.651 42.7629C156.245 41.8115 156.545 40.6802 156.545 39.3763Z" fill="white"/>
<path d="M170.375 35.0796C170.056 35.0221 169.716 34.9926 169.359 34.9926C168.224 34.9926 167.347 35.41 166.729 36.2464C166.192 36.9839 165.923 37.9161 165.923 39.0415V46.4681H162.699L162.729 36.7715C162.729 35.1401 162.689 33.6548 162.608 32.3155H165.418L165.536 35.0236H165.625C165.965 34.0929 166.502 33.3436 167.238 32.7816C167.956 32.2757 168.732 32.0234 169.569 32.0234C169.867 32.0234 170.136 32.0441 170.375 32.081V35.0796Z" fill="white"/>
<path d="M184.8 38.7216C184.8 39.285 184.762 39.76 184.682 40.1479H175.006C175.044 41.5462 175.512 42.6156 176.41 43.3531C177.226 44.0124 178.28 44.3428 179.575 44.3428C181.008 44.3428 182.315 44.1201 183.49 43.6732L183.995 45.8562C182.622 46.4403 181 46.7308 179.129 46.7308C176.878 46.7308 175.111 46.0848 173.825 44.7942C172.542 43.5035 171.899 41.7704 171.899 39.5963C171.899 37.4619 172.496 35.6846 173.693 34.2671C174.946 32.7537 176.639 31.9971 178.769 31.9971C180.861 31.9971 182.445 32.7537 183.52 34.2671C184.372 35.4692 184.8 36.956 184.8 38.7216ZM181.725 37.9059C181.746 36.9737 181.536 36.1684 181.098 35.4884C180.54 34.6137 179.682 34.1771 178.528 34.1771C177.474 34.1771 176.616 34.6034 175.961 35.4589C175.424 36.1389 175.105 36.9545 175.006 37.9044H181.725V37.9059Z" fill="white"/>
<path d="M74.2041 14.7631C74.2041 16.4992 73.6701 17.806 72.6036 18.6836C71.6157 19.4934 70.2118 19.899 68.3934 19.899C67.4917 19.899 66.7202 19.8607 66.0742 19.784V10.2983C66.9169 10.1655 67.8246 10.0977 68.8049 10.0977C70.537 10.0977 71.8426 10.4649 72.7231 11.1995C73.7094 12.0299 74.2041 13.2173 74.2041 14.7631ZM72.5325 14.8059C72.5325 13.6804 72.2269 12.8176 71.6157 12.2158C71.0045 11.6154 70.1119 11.3145 68.9365 11.3145C68.4372 11.3145 68.0121 11.347 67.6597 11.4148V18.6261C67.8548 18.6556 68.2118 18.6689 68.7307 18.6689C69.944 18.6689 70.8805 18.34 71.54 17.6821C72.1996 17.0243 72.5325 16.0655 72.5325 14.8059Z" fill="white"/>
<path d="M83.0677 16.2794C83.0677 17.3488 82.7545 18.2249 82.1282 18.9123C81.4717 19.6188 80.6018 19.9713 79.5156 19.9713C78.4687 19.9713 77.6352 19.6335 77.0134 18.955C76.3931 18.278 76.083 17.424 76.083 16.3944C76.083 15.3177 76.4022 14.4342 77.0436 13.7483C77.6851 13.0624 78.5474 12.7188 79.6336 12.7188C80.6805 12.7188 81.5216 13.0565 82.1585 13.7335C82.7636 14.3914 83.0677 15.241 83.0677 16.2794ZM81.4233 16.3295C81.4233 15.6879 81.2811 15.1377 80.9982 14.679C80.6653 14.1244 80.1918 13.8471 79.5761 13.8471C78.9392 13.8471 78.4551 14.1244 78.1223 14.679C77.8379 15.1377 77.6972 15.6968 77.6972 16.3576C77.6972 16.9992 77.8394 17.5494 78.1223 18.0081C78.4657 18.5627 78.9438 18.84 79.561 18.84C80.1661 18.84 80.6411 18.5583 80.983 17.9933C81.2765 17.5258 81.4233 16.9712 81.4233 16.3295Z" fill="white"/>
<path d="M94.9527 12.8604L92.7213 19.8135H91.269L90.3446 16.7942C90.1101 16.0405 89.9195 15.2912 89.7713 14.5478H89.7425C89.6049 15.3118 89.4142 16.0596 89.1692 16.7942L88.1873 19.8135H86.7184L84.6201 12.8604H86.2494L87.0558 16.1658C87.2509 16.9476 87.4113 17.6925 87.5399 18.3975H87.5686C87.6866 17.8164 87.8818 17.0759 88.1571 16.1806L89.1692 12.8618H90.4611L91.4308 16.1098C91.6653 16.9019 91.8559 17.6644 92.0027 18.399H92.0465C92.154 17.6836 92.3158 16.921 92.5307 16.1098L93.396 12.8618H94.9527V12.8604Z" fill="white"/>
<path d="M103.171 19.8135H101.586V15.831C101.586 14.6038 101.108 13.9902 100.149 13.9902C99.6783 13.9902 99.2986 14.1584 99.0036 14.4962C98.7116 14.8339 98.5633 15.2322 98.5633 15.688V19.8121H96.9779V14.8472C96.9779 14.2366 96.9582 13.5743 96.9204 12.8574H98.3137L98.3878 13.9445H98.4317C98.6163 13.6067 98.8916 13.328 99.2532 13.1052C99.6828 12.8456 100.164 12.7144 100.69 12.7144C101.356 12.7144 101.91 12.9238 102.35 13.3442C102.898 13.859 103.171 14.6274 103.171 15.6481V19.8135Z" fill="white"/>
<path d="M107.544 19.8135H105.96V9.66992H107.544V19.8135Z" fill="white"/>
<path d="M116.878 16.2794C116.878 17.3488 116.565 18.2249 115.938 18.9123C115.282 19.6188 114.41 19.9713 113.326 19.9713C112.277 19.9713 111.444 19.6335 110.823 18.955C110.203 18.278 109.893 17.424 109.893 16.3944C109.893 15.3177 110.212 14.4342 110.854 13.7483C111.495 13.0624 112.357 12.7188 113.442 12.7188C114.491 12.7188 115.33 13.0565 115.969 13.7335C116.574 14.3914 116.878 15.241 116.878 16.2794ZM115.232 16.3295C115.232 15.6879 115.09 15.1377 114.807 14.679C114.475 14.1244 114 13.8471 113.386 13.8471C112.748 13.8471 112.264 14.1244 111.932 14.679C111.648 15.1377 111.507 15.6968 111.507 16.3576C111.507 16.9992 111.649 17.5494 111.932 18.0081C112.276 18.5627 112.754 18.84 113.371 18.84C113.976 18.84 114.45 18.5583 114.792 17.9933C115.087 17.5258 115.232 16.9712 115.232 16.3295Z" fill="white"/>
<path d="M124.551 19.8135H123.127L123.009 19.0126H122.965C122.478 19.6512 121.784 19.9713 120.882 19.9713C120.209 19.9713 119.664 19.7604 119.255 19.3415C118.882 18.9609 118.696 18.4875 118.696 17.9255C118.696 17.0759 119.059 16.4284 119.79 15.98C120.519 15.5316 121.545 15.3118 122.866 15.3221V15.1923C122.866 14.2763 122.372 13.8191 121.385 13.8191C120.681 13.8191 120.061 13.9917 119.525 14.3339L119.203 13.3191C119.866 12.9193 120.684 12.7188 121.649 12.7188C123.513 12.7188 124.448 13.6775 124.448 15.595V18.1556C124.448 18.8503 124.483 19.4034 124.551 19.8135ZM122.905 17.424V16.3517C121.156 16.3222 120.282 16.7897 120.282 17.7529C120.282 18.1158 120.382 18.3872 120.586 18.5686C120.79 18.75 121.05 18.84 121.36 18.84C121.708 18.84 122.034 18.7323 122.33 18.5184C122.628 18.3031 122.811 18.0302 122.879 17.6954C122.896 17.6202 122.905 17.5287 122.905 17.424Z" fill="white"/>
<path d="M133.56 19.8135H132.153L132.079 18.6969H132.035C131.585 19.5465 130.82 19.9713 129.744 19.9713C128.885 19.9713 128.169 19.6424 127.602 18.9845C127.035 18.3267 126.752 17.4727 126.752 16.4239C126.752 15.2985 127.059 14.387 127.676 13.6908C128.274 13.0418 129.006 12.7173 129.877 12.7173C130.835 12.7173 131.505 13.0314 131.886 13.6613H131.917V9.66992H133.504V17.9402C133.504 18.6173 133.522 19.2412 133.56 19.8135ZM131.917 16.8812V15.7218C131.917 15.5212 131.902 15.359 131.873 15.2351C131.784 14.8634 131.591 14.5507 131.299 14.2985C131.004 14.0462 130.649 13.9194 130.239 13.9194C129.647 13.9194 129.185 14.148 128.844 14.6067C128.507 15.0655 128.336 15.651 128.336 16.3664C128.336 17.0538 128.498 17.6113 128.823 18.0405C129.166 18.4978 129.629 18.7264 130.209 18.7264C130.729 18.7264 131.145 18.5361 131.461 18.1541C131.767 17.8016 131.917 17.3768 131.917 16.8812Z" fill="white"/>
<path d="M147.119 16.2794C147.119 17.3488 146.806 18.2249 146.18 18.9123C145.523 19.6188 144.655 19.9713 143.567 19.9713C142.522 19.9713 141.688 19.6335 141.065 18.955C140.444 18.278 140.134 17.424 140.134 16.3944C140.134 15.3177 140.453 14.4342 141.095 13.7483C141.736 13.0624 142.599 12.7188 143.686 12.7188C144.732 12.7188 145.574 13.0565 146.21 13.7335C146.815 14.3914 147.119 15.241 147.119 16.2794ZM145.476 16.3295C145.476 15.6879 145.334 15.1377 145.051 14.679C144.717 14.1244 144.245 13.8471 143.627 13.8471C142.992 13.8471 142.508 14.1244 142.174 14.679C141.889 15.1377 141.748 15.6968 141.748 16.3576C141.748 16.9992 141.891 17.5494 142.174 18.0081C142.517 18.5627 142.995 18.84 143.612 18.84C144.217 18.84 144.694 18.5583 145.036 17.9933C145.328 17.5258 145.476 16.9712 145.476 16.3295Z" fill="white"/>
<path d="M155.644 19.8135H154.06V15.831C154.06 14.6038 153.582 13.9902 152.621 13.9902C152.151 13.9902 151.771 14.1584 151.478 14.4962C151.184 14.8339 151.037 15.2322 151.037 15.688V19.8121H149.451V14.8472C149.451 14.2366 149.432 13.5743 149.395 12.8574H150.786L150.86 13.9445H150.904C151.09 13.6067 151.366 13.328 151.726 13.1052C152.157 12.8456 152.637 12.7144 153.164 12.7144C153.829 12.7144 154.382 12.9238 154.823 13.3442C155.372 13.859 155.644 14.6274 155.644 15.6481V19.8135Z" fill="white"/>
<path d="M166.314 14.0184H164.568V17.3962C164.568 18.2546 164.878 18.6839 165.492 18.6839C165.776 18.6839 166.012 18.6603 166.199 18.6116L166.239 19.7842C165.926 19.8993 165.515 19.9568 165.008 19.9568C164.382 19.9568 163.895 19.7709 163.542 19.3992C163.188 19.0275 163.013 18.4021 163.013 17.5245V14.0184H161.97V12.8606H163.013V11.5862L164.566 11.1289V12.8591H166.312V14.0184H166.314Z" fill="white"/>
<path d="M174.707 19.8135H173.12V15.8605C173.12 14.6141 172.642 13.9902 171.684 13.9902C170.949 13.9902 170.447 14.3516 170.171 15.0743C170.124 15.2262 170.097 15.4121 170.097 15.6304V19.812H168.513V9.66992H170.097V13.8604H170.127C170.627 13.0978 171.342 12.7173 172.27 12.7173C172.926 12.7173 173.469 12.9267 173.9 13.3471C174.437 13.8707 174.707 14.6495 174.707 15.6791V19.8135Z" fill="white"/>
<path d="M183.365 16.0081C183.365 16.2854 183.343 16.5184 183.306 16.7087H178.551C178.572 17.3961 178.799 17.9197 179.239 18.2825C179.642 18.607 180.16 18.7693 180.796 18.7693C181.499 18.7693 182.141 18.6601 182.719 18.4404L182.967 19.5142C182.291 19.8003 181.495 19.9434 180.573 19.9434C179.469 19.9434 178.599 19.6263 177.97 18.992C177.338 18.3578 177.024 17.5067 177.024 16.4388C177.024 15.3901 177.316 14.5169 177.905 13.8207C178.519 13.0773 179.35 12.7056 180.398 12.7056C181.424 12.7056 182.203 13.0773 182.729 13.8207C183.154 14.4107 183.365 15.1408 183.365 16.0081ZM181.852 15.6084C181.864 15.1496 181.76 14.7543 181.545 14.421C181.269 13.9918 180.85 13.7764 180.283 13.7764C179.766 13.7764 179.344 13.9859 179.021 14.4062C178.758 14.7411 178.602 15.1408 178.551 15.6084H181.852Z" fill="white"/>
</svg>
